<mxfile host="app.diagrams.net" agent="Mozilla/5.0 (Windows NT 10.0; Win64; x64) AppleWebKit/537.36 (KHTML, like Gecko) Chrome/136.0.0.0 Safari/537.36" version="27.1.6">
  <diagram name="Seite-1" id="uq6DzirRMuFwbTMjOkdu">
    <mxGraphModel dx="1121" dy="773" grid="0" gridSize="10" guides="1" tooltips="1" connect="1" arrows="1" fold="1" page="1" pageScale="1" pageWidth="1169" pageHeight="827" background="light-dark(#FFFFFF,#121212)" math="0" shadow="0">
      <root>
        <mxCell id="0" />
        <mxCell id="1" parent="0" />
        <mxCell id="vVEwuDS_iwJ-gC4kcH3B-1" value="ESP8266 WIFi Kit 8" style="shape=image;html=1;verticalAlign=top;verticalLabelPosition=bottom;labelBackgroundColor=#ffffff;imageAspect=0;aspect=fixed;image=https://cdn2.iconfinder.com/data/icons/electronic-13/480/3-electronic-arduino-chipset-icon-2-128.png" vertex="1" parent="1">
          <mxGeometry x="420" y="145" width="190" height="190" as="geometry" />
        </mxCell>
        <mxCell id="vVEwuDS_iwJ-gC4kcH3B-5" value="220&amp;nbsp;Î©" style="pointerEvents=1;verticalLabelPosition=bottom;shadow=0;dashed=0;align=center;html=1;verticalAlign=top;shape=mxgraph.electrical.resistors.resistor_1;" vertex="1" parent="1">
          <mxGeometry x="690" y="183" width="100" height="20" as="geometry" />
        </mxCell>
        <mxCell id="vVEwuDS_iwJ-gC4kcH3B-13" style="edgeStyle=orthogonalEdgeStyle;rounded=0;orthogonalLoop=1;jettySize=auto;html=1;entryX=1;entryY=0.5;entryDx=0;entryDy=0;endArrow=none;startFill=0;" edge="1" parent="1" source="vVEwuDS_iwJ-gC4kcH3B-8" target="vVEwuDS_iwJ-gC4kcH3B-12">
          <mxGeometry relative="1" as="geometry">
            <Array as="points">
              <mxPoint x="968" y="193" />
              <mxPoint x="968" y="239" />
              <mxPoint x="650" y="239" />
            </Array>
          </mxGeometry>
        </mxCell>
        <mxCell id="vVEwuDS_iwJ-gC4kcH3B-8" value="Button-LED" style="pointerEvents=1;fillColor=strokeColor;verticalLabelPosition=bottom;shadow=0;dashed=0;align=center;html=1;verticalAlign=top;shape=mxgraph.electrical.diodes.diode;" vertex="1" parent="1">
          <mxGeometry x="854" y="173.5" width="61" height="39" as="geometry" />
        </mxCell>
        <mxCell id="vVEwuDS_iwJ-gC4kcH3B-9" style="edgeStyle=orthogonalEdgeStyle;rounded=0;orthogonalLoop=1;jettySize=auto;html=1;entryX=0.213;entryY=0.526;entryDx=0;entryDy=0;entryPerimeter=0;endArrow=none;startFill=0;" edge="1" parent="1" source="vVEwuDS_iwJ-gC4kcH3B-5" target="vVEwuDS_iwJ-gC4kcH3B-8">
          <mxGeometry relative="1" as="geometry" />
        </mxCell>
        <mxCell id="vVEwuDS_iwJ-gC4kcH3B-10" value="5 V" style="rounded=0;whiteSpace=wrap;html=1;" vertex="1" parent="1">
          <mxGeometry x="601" y="179" width="49" height="28" as="geometry" />
        </mxCell>
        <mxCell id="vVEwuDS_iwJ-gC4kcH3B-11" style="edgeStyle=orthogonalEdgeStyle;rounded=0;orthogonalLoop=1;jettySize=auto;html=1;entryX=0.26;entryY=0.517;entryDx=0;entryDy=0;entryPerimeter=0;endArrow=none;startFill=0;" edge="1" parent="1" source="vVEwuDS_iwJ-gC4kcH3B-10" target="vVEwuDS_iwJ-gC4kcH3B-5">
          <mxGeometry relative="1" as="geometry" />
        </mxCell>
        <mxCell id="vVEwuDS_iwJ-gC4kcH3B-12" value="GND" style="rounded=0;whiteSpace=wrap;html=1;" vertex="1" parent="1">
          <mxGeometry x="601" y="222" width="49" height="28" as="geometry" />
        </mxCell>
        <mxCell id="vVEwuDS_iwJ-gC4kcH3B-17" style="edgeStyle=orthogonalEdgeStyle;rounded=0;orthogonalLoop=1;jettySize=auto;html=1;entryX=0;entryY=0.84;entryDx=0;entryDy=0;endArrow=none;startFill=0;" edge="1" parent="1" source="vVEwuDS_iwJ-gC4kcH3B-15" target="vVEwuDS_iwJ-gC4kcH3B-16">
          <mxGeometry relative="1" as="geometry" />
        </mxCell>
        <mxCell id="vVEwuDS_iwJ-gC4kcH3B-15" value="D3" style="rounded=0;whiteSpace=wrap;html=1;" vertex="1" parent="1">
          <mxGeometry x="601" y="288" width="49" height="28" as="geometry" />
        </mxCell>
        <mxCell id="vVEwuDS_iwJ-gC4kcH3B-18" style="edgeStyle=orthogonalEdgeStyle;rounded=0;orthogonalLoop=1;jettySize=auto;html=1;entryX=1;entryY=0.5;entryDx=0;entryDy=0;endArrow=none;startFill=0;" edge="1" parent="1" source="vVEwuDS_iwJ-gC4kcH3B-16" target="vVEwuDS_iwJ-gC4kcH3B-12">
          <mxGeometry relative="1" as="geometry">
            <Array as="points">
              <mxPoint x="797" y="302" />
              <mxPoint x="797" y="239" />
              <mxPoint x="650" y="239" />
            </Array>
          </mxGeometry>
        </mxCell>
        <mxCell id="vVEwuDS_iwJ-gC4kcH3B-16" value="&lt;div&gt;&lt;br&gt;&lt;/div&gt;&lt;div&gt;&lt;br&gt;&lt;/div&gt;&lt;div&gt;&lt;br&gt;&lt;/div&gt;&lt;div&gt;Buzzer-Button&lt;/div&gt;" style="html=1;shape=mxgraph.electrical.electro-mechanical.switchDisconnector;aspect=fixed;elSwitchState=off;" vertex="1" parent="1">
          <mxGeometry x="690" y="285" width="75" height="20" as="geometry" />
        </mxCell>
        <mxCell id="vVEwuDS_iwJ-gC4kcH3B-20" value="D8" style="rounded=0;whiteSpace=wrap;html=1;" vertex="1" parent="1">
          <mxGeometry x="389" y="280.5" width="49" height="28" as="geometry" />
        </mxCell>
        <mxCell id="vVEwuDS_iwJ-gC4kcH3B-21" value="GND" style="rounded=0;whiteSpace=wrap;html=1;" vertex="1" parent="1">
          <mxGeometry x="389" y="214.5" width="49" height="28" as="geometry" />
        </mxCell>
        <mxCell id="vVEwuDS_iwJ-gC4kcH3B-22" value="5 V" style="rounded=0;whiteSpace=wrap;html=1;" vertex="1" parent="1">
          <mxGeometry x="389" y="171.5" width="49" height="28" as="geometry" />
        </mxCell>
        <mxCell id="vVEwuDS_iwJ-gC4kcH3B-23" value="LED Strip (AZ Delivery)" style="verticalLabelPosition=bottom;shadow=0;dashed=0;align=center;html=1;verticalAlign=top;shape=mxgraph.electrical.opto_electronics.led_1;pointerEvents=1;" vertex="1" parent="1">
          <mxGeometry x="196" y="196" width="100" height="65" as="geometry" />
        </mxCell>
        <mxCell id="vVEwuDS_iwJ-gC4kcH3B-25" style="edgeStyle=orthogonalEdgeStyle;rounded=0;orthogonalLoop=1;jettySize=auto;html=1;entryX=0;entryY=0.54;entryDx=0;entryDy=0;entryPerimeter=0;endArrow=none;startFill=0;" edge="1" parent="1" source="vVEwuDS_iwJ-gC4kcH3B-22" target="vVEwuDS_iwJ-gC4kcH3B-23">
          <mxGeometry relative="1" as="geometry">
            <Array as="points">
              <mxPoint x="176" y="176" />
              <mxPoint x="176" y="231" />
            </Array>
          </mxGeometry>
        </mxCell>
        <mxCell id="vVEwuDS_iwJ-gC4kcH3B-26" style="edgeStyle=orthogonalEdgeStyle;rounded=0;orthogonalLoop=1;jettySize=auto;html=1;entryX=0.121;entryY=0.467;entryDx=0;entryDy=0;entryPerimeter=0;endArrow=none;startFill=0;" edge="1" parent="1" source="vVEwuDS_iwJ-gC4kcH3B-23" target="vVEwuDS_iwJ-gC4kcH3B-21">
          <mxGeometry relative="1" as="geometry">
            <Array as="points">
              <mxPoint x="395" y="232" />
            </Array>
          </mxGeometry>
        </mxCell>
        <mxCell id="vVEwuDS_iwJ-gC4kcH3B-27" style="edgeStyle=orthogonalEdgeStyle;rounded=0;orthogonalLoop=1;jettySize=auto;html=1;entryX=0.418;entryY=1.066;entryDx=0;entryDy=0;entryPerimeter=0;endArrow=none;startFill=0;" edge="1" parent="1" source="vVEwuDS_iwJ-gC4kcH3B-20" target="vVEwuDS_iwJ-gC4kcH3B-23">
          <mxGeometry relative="1" as="geometry" />
        </mxCell>
      </root>
    </mxGraphModel>
  </diagram>
</mxfile>
